HIERARCHY
ROOT Hips
{
    OFFSET 0.000000 0.000000 0.000000
    CHANNELS 6 Xposition Yposition Zposition Zrotation Xrotation Yrotation
    JOINT Spine
    {
        OFFSET -0.000000 7.305679 0.000000
        CHANNELS 3 Zrotation Xrotation Yrotation
        JOINT Spine1
        {
            OFFSET -0.000000 20.356625 0.000000
            CHANNELS 3 Zrotation Xrotation Yrotation
            JOINT Neck
            {
                OFFSET -0.000000 22.138498 0.000000
                CHANNELS 3 Zrotation Xrotation Yrotation
                JOINT Head
                {
                    OFFSET -0.000000 13.809516 1.781873
                    CHANNELS 3 Zrotation Xrotation Yrotation
                    End Site
                    {
                        OFFSET -0.000000 17.818729 0.000000
                    }
                }
            }
            JOINT LeftShoulder
            {
                OFFSET 3.599131 17.989975 0.023592
                CHANNELS 3 Zrotation Xrotation Yrotation
                JOINT LeftArm
                {
                    OFFSET 12.560995 0.000000 0.000000
                    CHANNELS 3 Zrotation Xrotation Yrotation
                    JOINT LeftForeArm
                    {
                        OFFSET 22.903347 0.000000 0.000000
                        CHANNELS 3 Zrotation Xrotation Yrotation
                        JOINT LeftHand
                        {
                            OFFSET 21.865294 0.000000 0.000000
                            CHANNELS 3 Zrotation Xrotation Yrotation
                            JOINT LeftHandThumb1
                            {
                                OFFSET 1.853706 -2.106484 2.949078
                                CHANNELS 3 Zrotation Xrotation Yrotation
                                JOINT LeftHandThumb2
                                {
                                    OFFSET 2.049154 0.000000 1.336405
                                    CHANNELS 3 Zrotation Xrotation Yrotation
                                    JOINT LeftHandThumb3
                                    {
                                        OFFSET 2.672809 0.000000 0.000000
                                        CHANNELS 3 Zrotation Xrotation Yrotation
                                        End Site
                                        {
                                            OFFSET 2.381303 0.000000 0.000000
                                        }
                                    }
                                }
                            }
                            JOINT LeftHandIndex1
                            {
                                OFFSET 7.583345 0.000000 2.949078
                                CHANNELS 3 Zrotation Xrotation Yrotation
                                JOINT LeftHandIndex2
                                {
                                    OFFSET 4.454682 0.000000 0.000000
                                    CHANNELS 3 Zrotation Xrotation Yrotation
                                    JOINT LeftHandIndex3
                                    {
                                        OFFSET 2.227341 0.000000 0.000000
                                        CHANNELS 3 Zrotation Xrotation Yrotation
                                        End Site
                                        {
                                            OFFSET 1.984419 0.000000 0.000000
                                        }
                                    }
                                }
                            }
                            JOINT LeftHandMiddle1
                            {
                                OFFSET 7.583345 0.000000 0.977409
                                CHANNELS 3 Zrotation Xrotation Yrotation
                                JOINT LeftHandMiddle2
                                {
                                    OFFSET 4.900151 0.000000 0.000000
                                    CHANNELS 3 Zrotation Xrotation Yrotation
                                    JOINT LeftHandMiddle3
                                    {
                                        OFFSET 2.672809 0.000000 0.000000
                                        CHANNELS 3 Zrotation Xrotation Yrotation
                                        End Site
                                        {
                                            OFFSET 2.381303 0.000000 0.000000
                                        }
                                    }
                                }
                            }
                            JOINT LeftHandRing1
                            {
                                OFFSET 7.162047 0.000000 -0.977409
                                CHANNELS 3 Zrotation Xrotation Yrotation
                                JOINT LeftHandRing2
                                {
                                    OFFSET 4.454682 0.000000 0.000000
                                    CHANNELS 3 Zrotation Xrotation Yrotation
                                    JOINT LeftHandRing3
                                    {
                                        OFFSET 2.227341 0.000000 0.000000
                                        CHANNELS 3 Zrotation Xrotation Yrotation
                                        End Site
                                        {
                                            OFFSET 1.984419 0.000000 0.000000
                                        }
                                    }
                                }
                            }
                            JOINT LeftHandPinky1
                            {
                                OFFSET 6.740750 0.000000 -2.949078
                                CHANNELS 3 Zrotation Xrotation Yrotation
                                JOINT LeftHandPinky2
                                {
                                    OFFSET 3.563746 0.000000 0.000000
                                    CHANNELS 3 Zrotation Xrotation Yrotation
                                    JOINT LeftHandPinky3
                                    {
                                        OFFSET 1.781873 0.000000 0.000000
                                        CHANNELS 3 Zrotation Xrotation Yrotation
                                        End Site
                                        {
                                            OFFSET 1.587536 0.000000 0.000000
                                        }
                                    }
                                }
                            }
                        }
                    }
                }
            }
            JOINT RightShoulder
            {
                OFFSET -3.506995 17.989975 0.023592
                CHANNELS 3 Zrotation Xrotation Yrotation
                JOINT RightArm
                {
                    OFFSET -12.560995 0.000000 0.000000
                    CHANNELS 3 Zrotation Xrotation Yrotation
                    JOINT RightForeArm
                    {
                        OFFSET -22.903347 0.000000 0.000000
                        CHANNELS 3 Zrotation Xrotation Yrotation
                        JOINT RightHand
                        {
                            OFFSET -21.865294 0.000000 0.000000
                            CHANNELS 3 Zrotation Xrotation Yrotation
                            JOINT RightHandThumb1
                            {
                                OFFSET -1.853706 -2.106484 2.949078
                                CHANNELS 3 Zrotation Xrotation Yrotation
                                JOINT RightHandThumb2
                                {
                                    OFFSET -2.049154 0.000000 1.336405
                                    CHANNELS 3 Zrotation Xrotation Yrotation
                                    JOINT RightHandThumb3
                                    {
                                        OFFSET -2.672809 0.000000 0.000000
                                        CHANNELS 3 Zrotation Xrotation Yrotation
                                        End Site
                                        {
                                            OFFSET -2.381303 0.000000 0.000000
                                        }
                                    }
                                }
                            }
                            JOINT RightHandIndex1
                            {
                                OFFSET -7.583345 0.000000 2.949078
                                CHANNELS 3 Zrotation Xrotation Yrotation
                                JOINT RightHandIndex2
                                {
                                    OFFSET -4.454682 0.000000 0.000000
                                    CHANNELS 3 Zrotation Xrotation Yrotation
                                    JOINT RightHandIndex3
                                    {
                                        OFFSET -2.227341 0.000000 0.000000
                                        CHANNELS 3 Zrotation Xrotation Yrotation
                                        End Site
                                        {
                                            OFFSET -1.984419 0.000000 0.000000
                                        }
                                    }
                                }
                            }
                            JOINT RightHandMiddle1
                            {
                                OFFSET -7.583345 0.000000 0.977409
                                CHANNELS 3 Zrotation Xrotation Yrotation
                                JOINT RightHandMiddle2
                                {
                                    OFFSET -4.900151 0.000000 0.000000
                                    CHANNELS 3 Zrotation Xrotation Yrotation
                                    JOINT RightHandMiddle3
                                    {
                                        OFFSET -2.672809 0.000000 0.000000
                                        CHANNELS 3 Zrotation Xrotation Yrotation
                                        End Site
                                        {
                                            OFFSET -2.381303 0.000000 0.000000
                                        }
                                    }
                                }
                            }
                            JOINT RightHandRing1
                            {
                                OFFSET -7.162047 0.000000 -0.977409
                                CHANNELS 3 Zrotation Xrotation Yrotation
                                JOINT RightHandRing2
                                {
                                    OFFSET -4.454682 0.000000 0.000000
                                    CHANNELS 3 Zrotation Xrotation Yrotation
                                    JOINT RightHandRing3
                                    {
                                        OFFSET -2.227341 0.000000 0.000000
                                        CHANNELS 3 Zrotation Xrotation Yrotation
                                        End Site
                                        {
                                            OFFSET -1.984419 0.000000 0.000000
                                        }
                                    }
                                }
                            }
                            JOINT RightHandPinky1
                            {
                                OFFSET -6.740750 0.000000 -2.949078
                                CHANNELS 3 Zrotation Xrotation Yrotation
                                JOINT RightHandPinky2
                                {
                                    OFFSET -3.563746 0.000000 0.000000
                                    CHANNELS 3 Zrotation Xrotation Yrotation
                                    JOINT RightHandPinky3
                                    {
                                        OFFSET -1.781873 0.000000 0.000000
                                        CHANNELS 3 Zrotation Xrotation Yrotation
                                        End Site
                                        {
                                            OFFSET -1.587536 0.000000 0.000000
                                        }
                                    }
                                }
                            }
                        }
                    }
                }
            }
        }
    }
    JOINT LeftUpLeg
    {
        OFFSET 8.909365 0.000000 0.000000
        CHANNELS 3 Zrotation Xrotation Yrotation
        JOINT LeftLeg
        {
            OFFSET -0.000000 -38.765560 0.000000
            CHANNELS 3 Zrotation Xrotation Yrotation
            JOINT LeftFoot
            {
                OFFSET -0.000000 -35.244961 0.000000
                CHANNELS 3 Zrotation Xrotation Yrotation
                JOINT LeftToeBase
                {
                    OFFSET -0.000000 -5.791087 13.364048
                    CHANNELS 3 Zrotation Xrotation Yrotation
                    End Site
                    {
                        OFFSET -0.000000 0.000000 3.563746
                    }
                }
            }
        }
    }
    JOINT RightUpLeg
    {
        OFFSET -8.909365 0.000000 0.000000
        CHANNELS 3 Zrotation Xrotation Yrotation
        JOINT RightLeg
        {
            OFFSET -0.000000 -38.765560 0.000000
            CHANNELS 3 Zrotation Xrotation Yrotation
            JOINT RightFoot
            {
                OFFSET -0.000000 -35.244961 0.000000
                CHANNELS 3 Zrotation Xrotation Yrotation
                JOINT RightToeBase
                {
                    OFFSET -0.000000 -5.791087 13.364048
                    CHANNELS 3 Zrotation Xrotation Yrotation
                    End Site
                    {
                        OFFSET -0.000000 0.000000 3.563746
                    }
                }
            }
        }
    }
}
MOTION
Frames:    4
Frame Time:    0.008333
-0.284930    80.850220    107.614311    1.761190    -1.122743    -1.356460    0.053976    0.854845    0.561611    -3.489948    1.249537    0.225932    2.764166    4.886102    -3.417720    3.629860    3.172637    -3.609737    1.553580    5.427248    -7.060647    -87.573593    25.588869    -0.415851    9.721157    -6.930962    0.861229    0.823556    -29.408302    15.718092    -1.359589    0.171258    -1.496743    0.000000    0.000000    0.000000    0.000000    0.000000    0.000000    -20.690630    3.592739    -9.420558    -41.973507    0.000000    0.000000    -20.986753    0.000000    0.000000    -30.574389    -1.193831    -1.246348    -61.208111    0.000000    0.000000    -30.604050    0.000000    0.000000    -39.747498    -7.267796    6.041137    -80.442696    0.000000    0.000000    -40.221355    0.000000    0.000000    -48.510212    -14.616302    12.580849    -100.260155    0.000000    0.000000    -50.130077    0.000000    0.000000    -4.204967    0.122517    -1.945507    98.501495    47.238056    -9.317595    -10.791541    -33.484650    1.404678    6.214259    -40.101444    -14.642084    1.659713    -0.124637    1.296505    0.000000    0.000000    0.000000    0.000000    0.000000    0.000000    5.295944    0.000000    -0.000000    10.591888    0.000000    -0.000000    5.295944    0.000000    -0.000000    15.103227    -1.401288    -2.984422    30.323492    0.000000    -0.000000    15.161747    0.000000    -0.000000    24.836285    -3.288710    -5.689816    50.055088    0.000000    -0.000000    25.027550    0.000000    -0.000000    34.789333    -5.680646    -8.108664    70.384613    0.000000    -0.000000    35.192307    0.000000    -0.000000    -4.607672    -7.111325    -2.967680    -0.753774    20.444773    9.694154    -2.185253    -12.372860    -6.002214    0.424204    0.434629    -0.991753    0.755465    -8.618079    3.234977    0.189717    25.387972    -6.633105    1.395218    -16.321394    4.278379    -0.659390    -0.633131    0.978152    
-0.244436    80.861252    107.632706    1.780651    -1.119022    -1.330970    0.111491    0.758240    0.625057    -3.557258    1.307359    0.249818    2.783137    5.002497    -3.462537    3.585196    3.249585    -3.645219    1.543548    5.405665    -7.043885    -87.472824    25.551764    -0.443710    9.803398    -6.994018    0.824791    0.887711    -29.418476    15.684473    -1.443803    0.325298    -1.418723    0.000000    0.000000    0.000000    0.000000    0.000000    0.000000    -20.683994    3.652048    -9.576306    -41.980015    0.000000    0.000000    -20.990005    0.000000    0.000000    -30.519531    -1.097447    -1.387558    -61.092129    0.000000    0.000000    -30.546070    0.000000    0.000000    -39.646049    -7.131208    5.924123    -80.204262    0.000000    0.000000    -40.102119    0.000000    0.000000    -48.358368    -14.437423    12.499365    -99.895515    0.000000    0.000000    -49.947758    0.000000    0.000000    -4.195429    0.101171    -1.918282    98.501595    47.346119    -9.363820    -10.809404    -33.362686    1.398204    6.493249    -39.961254    -14.293519    1.644413    -0.106364    1.256554    0.000000    0.000000    0.000000    0.000000    0.000000    0.000000    5.394122    0.000000    -0.000000    10.788244    0.000000    -0.000000    5.394122    0.000000    -0.000000    15.173832    -1.393627    -2.962555    30.463017    0.000000    -0.000000    15.231513    0.000000    -0.000000    24.880295    -3.268520    -5.648547    50.137802    0.000000    -0.000000    25.068901    0.000000    -0.000000    34.806942    -5.643219    -8.050903    70.408783    0.000000    -0.000000    35.204388    0.000000    -0.000000    -4.658604    -6.984479    -2.933690    -0.723877    20.194462    9.945690    -2.211531    -12.246414    -6.313540    0.426415    0.453062    -0.994665    0.706277    -8.601401    3.258947    0.198015    25.379305    -6.672308    1.437739    -16.333723    4.277138    -0.658941    -0.638598    0.976928    
-0.203972    80.872437    107.650948    1.799710    -1.116203    -1.306176    0.168518    0.663843    0.688546    -3.623773    1.365044    0.273367    2.802731    5.115405    -3.507052    3.541890    3.323426    -3.680368    1.534770    5.385319    -7.027626    -87.373779    25.512493    -0.472012    9.884093    -7.061793    0.784499    0.947776    -29.435131    15.643894    -1.524578    0.476447    -1.339182    0.000000    0.000000    0.000000    0.000000    0.000000    0.000000    -20.672260    3.712211    -9.736776    -41.977112    0.000000    0.000000    -20.988556    0.000000    0.000000    -30.459652    -1.001748    -1.529791    -60.966644    0.000000    0.000000    -30.483313    0.000000    0.000000    -39.539127    -6.997365    5.809479    -79.956177    0.000000    0.000000    -39.978085    0.000000    0.000000    -48.200089    -14.263780    12.423491    -99.521126    0.000000    0.000000    -49.760563    0.000000    0.000000    -4.186157    0.080942    -1.891762    98.500610    47.448181    -9.408784    -10.828566    -33.240108    1.393752    6.764616    -39.817142    -13.943750    1.632863    -0.086768    1.217020    0.000000    0.000000    0.000000    0.000000    0.000000    0.000000    5.497969    0.000000    -0.000000    10.995939    0.000000    -0.000000    5.497969    0.000000    -0.000000    15.247326    -1.386231    -2.941312    30.608404    0.000000    -0.000000    15.304198    0.000000    -0.000000    24.924381    -3.248849    -5.608553    50.220856    0.000000    -0.000000    25.110428    0.000000    -0.000000    34.821693    -5.606584    -7.995145    70.427628    0.000000    -0.000000    35.213814    0.000000    -0.000000    -4.709996    -6.855690    -2.897470    -0.691612    19.942087    10.185858    -2.235543    -12.119277    -6.615011    0.428605    0.471639    -0.997504    0.657514    -8.583842    3.284668    0.207015    25.370298    -6.707605    1.478714    -16.345865    4.270453    -0.658641    -0.643921    0.975955    
-0.163570    80.883865    107.668861    1.818193    -1.115496    -1.282799    0.224448    0.573968    0.750921    -3.688912    1.422266    0.296846    2.823358    5.221983    -3.550604    3.500146    3.390984    -3.714434    1.528478    5.367276    -7.012486    -87.278610    25.469591    -0.500329    9.962486    -7.139014    0.737972    1.000001    -29.464045    15.588332    -1.597696    0.622963    -1.254909    0.000000    0.000000    0.000000    0.000000    0.000000    0.000000    -20.652214    3.772195    -9.901086    -41.958145    0.000000    0.000000    -20.979076    0.000000    0.000000    -30.390884    -0.908512    -1.670620    -60.824078    0.000000    0.000000    -30.412031    0.000000    0.000000    -39.422062    -6.868931    5.701127    -79.689987    0.000000    0.000000    -39.844986    0.000000    0.000000    -48.029625    -14.099053    12.358747    -99.127586    0.000000    0.000000    -49.563793    0.000000    0.000000    -4.177519    0.063704    -1.865812    98.497139    47.540287    -9.450032    -10.851058    -33.118504    1.392365    7.026438    -39.669495    -13.590375    1.624117    -0.064027    1.174292    0.000000    0.000000    0.000000    0.000000    0.000000    0.000000    5.611364    0.000000    -0.000000    11.222730    0.000000    -0.000000    5.611364    0.000000    -0.000000    15.325044    -1.378939    -2.920520    30.762241    0.000000    -0.000000    15.381120    0.000000    -0.000000    24.967342    -3.229235    -5.569599    50.301746    0.000000    -0.000000    25.150869    0.000000    -0.000000    34.829765    -5.569850    -7.941240    70.433357    0.000000    -0.000000    35.216679    0.000000    -0.000000    -4.762357    -6.723381    -2.857836    -0.655195    19.686993    10.402736    -2.255877    -11.991596    -6.895223    0.430816    0.490478    -1.000358    0.609436    -8.564222    3.312964    0.216869    25.360622    -6.735311    1.516460    -16.357462    4.254149    -0.658491    -0.649059    0.975235    
